<?xml version="1.0" encoding="utf-8"?>
<!-- Svg Vector Icons : http://www.onlinewebfonts.com/icon -->
<!DOCTYPE svg PUBLIC "-//W3C//DTD SVG 1.1//EN" "http://www.w3.org/Graphics/SVG/1.1/DTD/svg11.dtd">
<svg version="1.1" xmlns="http://www.w3.org/2000/svg" xmlns:xlink="http://www.w3.org/1999/xlink" x="0px" y="0px" viewBox="0 0 256 256" enable-background="new 0 0 256 256" xml:space="preserve">
<metadata> Svg Vector Icons : http://www.onlinewebfonts.com/icon </metadata>
<g><g><g><path fill="#000000" d="M233.5,10H22.5C15.6,10,10,15.6,10,22.5v210.9c0,6.9,5.6,12.5,12.5,12.5h210.9c6.9,0,12.5-5.6,12.5-12.5V22.5C246,15.6,240.4,10,233.5,10z M76.3,221.4H37.5V96.6h38.8L76.3,221.4L76.3,221.4z M56.9,79.6c-12.4,0-22.5-10.1-22.5-22.5c0-12.4,10.1-22.5,22.5-22.5c12.4,0,22.5,10.1,22.5,22.5C79.4,69.5,69.3,79.6,56.9,79.6z M221.6,221.4h-38.8v-60.7c0-14.5-0.3-33.1-20.2-33.1c-20.2,0-23.3,15.8-23.3,32v61.7h-38.8V96.6h37.2v17.1h0.5c5.2-9.8,17.8-20.2,36.7-20.2c39.3,0,46.5,25.8,46.5,59.4L221.6,221.4L221.6,221.4z"/></g><g></g><g></g><g></g><g></g><g></g><g></g><g></g><g></g><g></g><g></g><g></g><g></g><g></g><g></g><g></g></g></g>
</svg>